# xmcd
#
# Track frame offsets:
#	150
#	15058
#	33505
#	53785
#	67025
#	100334
#	121456
#	152145
#	162400
#
# Disc length: 2591 seconds
# Revision: 0
# Processed by: cddbd v1.5.2PL0 Copyright (c) Steve Scherf et al.
# Submitted via: dBpowerAMP V12.0
#
DISCID=6e0a1d09
DTITLE=The Glory Gospel Singers - Live in Concert 1/2
DYEAR=1900
DGENRE=Gospel
TTITLE0=Let the Church say Amen
TTITLE1=O Happy Day
TTITLE2=He looked beyond my fault
TTITLE3=King of Kings
TTITLE4=Medley: I am a po'pilgrim of sorrow - Soon ah will be done - Wade in de'water - Go down Moses
TTITLE5=Hush, somebody's callin'mah name
TTITLE6=Praise the name of Jesus
TTITLE7=Amazing Grace
TTITLE8=He's got the whole world in his hands
EXTD=
EXTT0=
EXTT1=
EXTT2=
EXTT3=
EXTT4=
EXTT5=
EXTT6=
EXTT7=
EXTT8=
PLAYORDER=
